# xmcd
#
# Track frame offsets:
#	150
#	13591
#	27444
#	42497
#	54619
#	68050
#	84694
#	94625
#	105938
#	120782
#	134049
#	147335
#
# Disc length: 2140 seconds
#
# Revision: 1
# Processed by: cddbd v1.5.2PL0 Copyright (c) Steve Scherf et al.
# Submitted via: audiograbber 1.83.01
#
DISCID=9e085a0c
DTITLE=Adamo - Adamo
DYEAR=1900
DGENRE=Schlager
TTITLE0=Gestatten Sie, Monsieur
TTITLE1=Eine Locke von deinem Haar
TTITLE2=Das Wunder der Liebe
TTITLE3=Comme toujours
TTITLE4=Die Geschenke für dich
TTITLE5=En bandouliere
TTITLE6=Ein bißchen Herz
TTITLE7=Nur noch Rosen
TTITLE8=Mit dir beginnt dein Leben
TTITLE9=Si le ciel est amoureux de toi
TTITLE10=Amour perdu
TTITLE11=Du kamst zurück
EXTD=
EXTT0=
EXTT1=
EXTT2=
EXTT3=
EXTT4=
EXTT5=
EXTT6=
EXTT7=
EXTT8=
EXTT9=
EXTT10=
EXTT11=
PLAYORDER=
